<svg width="40" height="45" viewBox="0 0 20 20" version="1.1" xmlns="http://www.w3.org/2000/svg" fill="#000000"><g id="SVGRepo_bgCarrier" stroke-width="0"></g><g id="SVGRepo_tracerCarrier" stroke-linecap="round" stroke-linejoin="round"></g><g id="SVGRepo_iconCarrier"> <g id="layer1"> <path d="M 1.5 4 A 1.5 1.5 0 0 0 0 5.5 L 0 15.5 A 1.5 1.5 0 0 0 1.5 17 L 18.5 17 A 1.5 1.5 0 0 0 20 15.5 L 20 5.5 A 1.5 1.5 0 0 0 18.5 4 L 1.5 4 z M 1.5 5 L 18.5 5 A 0.5 0.5 0 0 1 19 5.5 L 19 15.5 A 0.5 0.5 0 0 1 18.5 16 L 1.5 16 A 0.5 0.5 0 0 1 1 15.5 L 1 5.5 A 0.5 0.5 0 0 1 1.5 5 z M 2 8 L 2 11 L 6 11 L 6 8 L 2 8 z M 3 9 L 5 9 L 5 10 L 3 10 L 3 9 z M 2 12 L 2 13 L 5 13 L 5 12 L 2 12 z M 6 12 L 6 13 L 9 13 L 9 12 L 6 12 z M 10 12 L 10 13 L 13 13 L 13 12 L 10 12 z M 14 12 L 14 13 L 17 13 L 17 12 L 14 12 z M 2 14 L 2 15 L 7 15 L 7 14 L 2 14 z M 8 14 L 8 15 L 13 15 L 13 14 L 8 14 z " style="fill:#5A6DFC; fill-opacity:1; stroke:none; stroke-width:0px;"></path> </g> </g></svg>